# xmcd
#
# Track frame offsets: 
#        150
#        27301
#        50252
#        70803
#        86479
#        114530
#        133731
#        159832
#
# Disc length: 2283 seconds
#
# Revision: 1
# Processed by: cddbd v1.5.2PL0 Copyright (c) Steve Scherf et al.
# Submitted via: ExactAudioCopyFreeDBPlugin 1.0
#
DISCID=6008e908
DTITLE=Tadeusz Nalepa - Sen szaleńca
DYEAR=1987
DGENRE=Blues
TTITLE0=Na wysoką górę wchodzę
TTITLE1=Mój dom umiera
TTITLE2=Kim bez ciebie jestem
TTITLE3=Sen szaleńca
TTITLE4=Muszę dziś ciebie zabić
TTITLE5=Oni mnie wyręczą w tym
TTITLE6=Musisz kłamstwem karmić ich
TTITLE7=Kły wilczycy
EXTD=
EXTT0=
EXTT1=
EXTT2=
EXTT3=
EXTT4=
EXTT5=
EXTT6=
EXTT7=
PLAYORDER=
